# This file is brought to you by Roblox Corporation
# Generated by Roblox Studio

mtllib dakmodulegang.mtl

g Union1

v 77.1503 0.000146389 129.651 
v 90.4439 -0.00129271 116.358 
v 103.737 0.000146389 129.651 
v 86.2317 1.68168 120.57 
v 86.2317 1.68266 129.651 
v 90.4375 0.998709 116.364 
v 90.4375 1.00015 129.651 
v 83.06 3.23324 123.741 
v 83.06 3.23388 129.651 
v 81.033 4.89521 125.768 
v 81.033 4.89563 129.651 
v 79.3712 6.92239 127.43 
v 79.3712 6.92263 129.651 
v 81.033 4.89521 125.768 
v 81.033 4.89563 129.651 
v 77.82 10.0943 128.981 
v 77.82 10.0943 129.65 
v 77.5107 12.0002 129.65 
v 77.5107 12.0001 129.29 
v 103.055 10.0942 128.968 
v 103.055 10.0943 129.65 
v 103.364 12.0001 129.277 
v 103.364 12.0002 129.65 
v 101.504 6.92239 127.417 
v 101.504 6.92263 129.651 
v 99.842 4.8952 125.755 
v 99.842 4.89563 129.651 
v 97.815 3.23325 123.729 
v 97.815 3.23389 129.651 
v 99.842 4.8952 125.755 
v 99.842 4.89563 129.651 
v 94.6433 1.68167 120.557 
v 94.6433 1.68266 129.651 
v 90.4439 0.999745 116.358 
v 90.4375 1.00015 129.651 
v 103.737 0.000146389 129.651 
v 94.6433 1.68266 129.651 
v 94.6433 1.68167 120.557 
v 103.737 0.000146389 129.651 
v 90.4439 0.999745 116.358 
v 90.4439 -0.00129271 116.358 
v 90.4439 0.999745 116.358 
v 90.4439 -0.00129271 116.358 
v 90.4375 0.998709 116.364 
v 86.2317 1.68168 120.57 
v 77.1503 0.000146389 129.651 
v 86.2317 1.68266 129.651 
v 77.1503 0.000146389 129.651 
v 97.815 3.23389 129.651 
v 97.815 3.23325 123.729 
v 83.06 3.23324 123.741 
v 83.06 3.23388 129.651 
v 99.842 4.89563 129.651 
v 99.842 4.8952 125.755 
v 81.033 4.89521 125.768 
v 81.033 4.89563 129.651 
v 101.504 6.92263 129.651 
v 101.504 6.92239 127.417 
v 79.3712 6.92239 127.43 
v 79.3712 6.92263 129.651 
v 103.055 10.0943 129.65 
v 103.055 10.0942 128.968 
v 77.82 10.0943 128.981 
v 77.82 10.0943 129.65 
v 103.364 12.0002 129.65 
v 103.737 12.0002 129.65 
v 103.364 12.0001 129.277 
v 103.364 12.0002 129.65 
v 103.737 12.0002 129.65 
v 103.737 12.0002 129.65 
v 103.364 12.0001 129.277 
v 77.5107 12.0001 129.29 
v 77.1503 12.0002 129.65 
v 77.1503 12.0002 129.65 
v 77.5107 12.0002 129.65 
v 77.5107 12.0002 129.65 
v 77.5107 12.0001 129.29 
v 77.1503 12.0002 129.65 

vn 0 -1 0 
vn 0 -1 0 
vn 0 -1 0 
vn 0.314961 0.944882 0 
vn 0.314961 0.944882 0 
vn 0 1 0 
vn 0 1 0 
vn 0.551181 0.834646 0 
vn 0.551181 0.834646 0 
vn 0.708661 0.708661 0 
vn 0.708661 0.708661 0 
vn 0.834646 0.551181 0 
vn 0.834646 0.551181 0 
vn 0.708661 0.708661 0 
vn 0.708661 0.708661 0 
vn 0.944882 0.314961 0 
vn 0.944882 0.314961 0 
vn 0.984252 0.173228 0 
vn 0.984252 0.173228 0 
vn -0.944882 0.314961 0 
vn -0.944882 0.314961 0 
vn -0.984252 0.173228 0 
vn -0.984252 0.173228 0 
vn -0.834646 0.551181 0 
vn -0.834646 0.551181 0 
vn -0.708661 0.708661 0 
vn -0.708661 0.708661 0 
vn -0.551181 0.834646 0 
vn -0.551181 0.834646 0 
vn -0.708661 0.708661 0 
vn -0.708661 0.708661 0 
vn -0.314961 0.944882 0 
vn -0.314961 0.944882 0 
vn 0 1 0 
vn 0 0 1 
vn 0 0 1 
vn 0 0 1 
vn 0.708661 0 -0.708661 
vn 0.708661 0 -0.708661 
vn 0.708661 0 -0.708661 
vn 0.708661 0 -0.708661 
vn -0.708661 0 -0.708661 
vn -0.708661 0 -0.708661 
vn -0.708661 0 -0.708661 
vn -0.708661 0 -0.708661 
vn -0.708661 0 -0.708661 
vn 0 0 1 
vn 0 0 1 
vn 0 0 1 
vn 0.708661 0 -0.708661 
vn -0.708661 0 -0.708661 
vn 0 0 1 
vn 0 0 1 
vn 0.708661 0 -0.708661 
vn -0.708661 0 -0.708661 
vn 0 0 1 
vn 0 0 1 
vn 0.708661 0 -0.708661 
vn -0.708661 0 -0.708661 
vn 0 0 1 
vn 0 0 1 
vn 0.708661 0 -0.708661 
vn -0.708661 0 -0.708661 
vn 0 0 1 
vn 0 1 0 
vn 0 1 0 
vn 0 1 0 
vn 0 0 1 
vn 0 0 1 
vn 0.708661 0 -0.708661 
vn 0.708661 0 -0.708661 
vn -0.708661 0 -0.708661 
vn -0.708661 0 -0.708661 
vn 0 0 1 
vn 0 0 1 
vn 0 1 0 
vn 0 1 0 
vn 0 1 0 

vt 11.1691 -32.6617 
vt 12.8309 -31 
vt 11.1691 -29.3383 
vt 11.6957 -31.5265 
vt 12.8309 -31.5265 
vt 11.1699 -31.0008 
vt 12.8309 -31.0008 
vt 12.0921 -31.923 
vt 12.8309 -31.923 
vt 12.3455 -32.1764 
vt 12.8309 -32.1764 
vt 12.5532 -31.1153 
vt 12.8309 -31.1153 
vt 12.3455 -30.8619 
vt 12.8309 -30.8619 
vt 12.7471 -31.5118 
vt 12.8309 -31.5118 
vt 12.8309 -31.75 
vt 12.7858 -31.75 
vt 11.2545 -31.5118 
vt 11.1691 -31.5118 
vt 11.2158 -31.75 
vt 11.1691 -31.75 
vt 11.4484 -31.1153 
vt 11.1691 -31.1153 
vt 11.6561 -30.8619 
vt 11.1691 -30.8619 
vt 12.0905 -30.0786 
vt 12.8309 -30.0786 
vt 12.3439 -29.8252 
vt 12.8309 -29.8252 
vt 11.6941 -30.4751 
vt 12.8309 -30.4751 
vt 11.1691 -31 
vt 12.625 -31.0008 
vt 12.75 -29.3383 
vt 12.5397 -30.4751 
vt 11.6941 -30.4603 
vt 12.8309 -30.25 
vt 11.1691 -30.3751 
vt 11.1691 -30.25 
vt 12.8309 -30.3751 
vt 12.8309 -30.25 
vt 12.8301 -30.375 
vt 12.3043 -30.4603 
vt 11.1691 -30.25 
vt 12.5397 -31.5265 
vt 12.75 -32.6617 
vt 12.3458 -30.0786 
vt 12.0905 -30.6542 
vt 11.9079 -30.6542 
vt 12.3458 -31.923 
vt 12.1381 -29.8252 
vt 12.3439 -30.8619 
vt 11.6545 -30.8619 
vt 12.1381 -32.1764 
vt 11.8847 -29.6175 
vt 12.5516 -31.1153 
vt 11.4468 -31.1153 
vt 11.8847 -32.3841 
vt 11.4882 -29.4236 
vt 12.7455 -31.5118 
vt 11.2529 -31.5118 
vt 11.4882 -32.578 
vt 12.8309 -29.385 
vt 12.8309 -29.3383 
vt 12.7842 -29.385 
vt 11.25 -29.385 
vt 11.25 -29.3383 
vt 12.8309 -31.75 
vt 12.7842 -31.75 
vt 11.2142 -31.75 
vt 11.1691 -31.75 
vt 11.25 -32.6617 
vt 11.25 -32.6166 
vt 12.8309 -32.6166 
vt 12.7858 -32.6166 
vt 12.8309 -32.6617 

usemtl Union1Mtl

f 1/1/1 2/2/2 3/3/3 
f 4/4/4 5/5/5 6/6/6 
f 5/5/5 7/7/7 6/6/6 
f 8/8/8 9/9/9 4/4/4 
f 9/9/9 5/5/5 4/4/4 
f 10/10/10 11/11/11 8/8/8 
f 11/11/11 9/9/9 8/8/8 
f 12/12/12 13/13/13 14/14/14 
f 13/13/13 15/15/15 14/14/14 
f 16/16/16 17/17/17 12/12/12 
f 17/17/17 13/13/13 12/12/12 
f 17/17/17 16/16/16 18/18/18 
f 16/16/16 19/19/19 18/18/18 
f 20/20/20 21/21/21 22/22/22 
f 21/21/21 23/23/23 22/22/22 
f 24/24/24 25/25/25 20/20/20 
f 25/25/25 21/21/21 20/20/20 
f 26/26/26 27/27/27 24/24/24 
f 27/27/27 25/25/25 24/24/24 
f 28/28/28 29/29/29 30/30/30 
f 29/29/29 31/31/31 30/30/30 
f 32/32/32 33/33/33 28/28/28 
f 33/33/33 29/29/29 28/28/28 
f 6/6/6 7/7/7 34/34/34 
f 7/7/7 33/33/33 34/34/34 
f 33/33/33 32/32/32 34/34/34 
f 35/35/35 36/36/36 37/37/37 
f 38/38/38 39/39/39 40/40/40 
f 39/39/39 41/41/41 40/40/40 
f 42/42/42 43/43/43 44/44/44 
f 45/45/45 43/43/43 46/46/46 
f 44/44/44 43/43/43 45/45/45 
f 47/47/47 48/48/48 35/35/35 
f 37/37/37 36/36/36 49/49/49 
f 50/50/50 39/39/39 38/38/38 
f 45/45/45 46/46/46 51/51/51 
f 52/52/52 48/48/48 47/47/47 
f 49/49/49 36/36/36 53/53/53 
f 54/54/54 39/39/39 50/50/50 
f 51/51/51 46/46/46 55/55/55 
f 56/56/56 48/48/48 52/52/52 
f 53/53/53 36/36/36 57/57/57 
f 58/58/58 39/39/39 54/54/54 
f 55/55/55 46/46/46 59/59/59 
f 60/60/60 48/48/48 56/56/56 
f 57/57/57 36/36/36 61/61/61 
f 62/62/62 39/39/39 58/58/58 
f 59/59/59 46/46/46 63/63/63 
f 64/64/64 48/48/48 60/60/60 
f 65/65/65 66/66/66 67/67/67 
f 61/61/61 36/36/36 68/68/68 
f 36/36/36 69/69/69 68/68/68 
f 39/39/39 62/62/62 70/70/70 
f 62/62/62 71/71/71 70/70/70 
f 63/63/63 46/46/46 72/72/72 
f 46/46/46 73/73/73 72/72/72 
f 48/48/48 64/64/64 74/74/74 
f 64/64/64 75/75/75 74/74/74 
f 76/76/76 77/77/77 78/78/78 
f 35/35/35 48/48/48 36/36/36 

